<?xml version="1.0" encoding="UTF-8" standalone="no"?>
<!DOCTYPE svg PUBLIC "-//W3C//DTD SVG 1.1//EN" "http://www.w3.org/Graphics/SVG/1.1/DTD/svg11.dtd">
<!-- Generated by Microsoft Visio, SVG Export sequentialCircuits.svg Page-1 -->
<svg xmlns="http://www.w3.org/2000/svg" xmlns:xlink="http://www.w3.org/1999/xlink" xmlns:ev="http://www.w3.org/2001/xml-events"
		xmlns:v="http://schemas.microsoft.com/visio/2003/SVGExtensions/" width="4.41667in" height="3.0625in"
		viewBox="0 0 318 220.5" xml:space="preserve" color-interpolation-filters="sRGB" class="st13">
	<v:documentProperties v:langID="1033" v:viewMarkup="false"/>

	<style type="text/css">
	<![CDATA[
		.st1 {visibility:visible}
		.st2 {fill:#5b9bd5;fill-opacity:0.22;filter:url(#filter_2);stroke:#5b9bd5;stroke-opacity:0.22}
		.st3 {fill:#fee599;stroke:#000000;stroke-width:2.25}
		.st4 {fill:#000000;font-family:Calibri;font-size:1.16666em;font-weight:bold}
		.st5 {font-size:1em}
		.st6 {fill:#deebf6;stroke:#000000;stroke-width:2.25}
		.st7 {marker-end:url(#mrkr13-19);stroke:#5b9bd5;stroke-linecap:round;stroke-linejoin:round;stroke-width:2.25}
		.st8 {fill:#5b9bd5;fill-opacity:1;stroke:#5b9bd5;stroke-opacity:1;stroke-width:0.47169811320755}
		.st9 {marker-end:url(#mrkr4-30);stroke:#5b9bd5;stroke-linecap:round;stroke-linejoin:round;stroke-width:2.25}
		.st10 {fill:none;stroke:none;stroke-width:0.25}
		.st11 {fill:#000000;font-family:Calibri;font-size:1.00001em;font-weight:bold}
		.st12 {fill:#c00000;font-family:Calibri;font-size:1.00001em;font-weight:bold}
		.st13 {fill:none;fill-rule:evenodd;font-size:12px;overflow:visible;stroke-linecap:square;stroke-miterlimit:3}
	]]>
	</style>

	<defs id="Markers">
		<g id="lend13">
			<path d="M 3 1 L 0 0 L 3 -1 L 3 1 " style="stroke:none"/>
		</g>
		<marker id="mrkr13-19" class="st8" v:arrowType="13" v:arrowSize="2" v:setback="6.36" refX="-6.36" orient="auto"
				markerUnits="strokeWidth" overflow="visible">
			<use xlink:href="#lend13" transform="scale(-2.12,-2.12) "/>
		</marker>
		<g id="lend4">
			<path d="M 2 1 L 0 0 L 2 -1 L 2 1 " style="stroke:none"/>
		</g>
		<marker id="mrkr4-30" class="st8" v:arrowType="4" v:arrowSize="2" v:setback="4.24" refX="-4.24" orient="auto"
				markerUnits="strokeWidth" overflow="visible">
			<use xlink:href="#lend4" transform="scale(-2.12,-2.12) "/>
		</marker>
	</defs>
	<defs id="Filters">
		<filter id="filter_2">
			<feGaussianBlur stdDeviation="2"/>
		</filter>
	</defs>
	<g v:mID="0" v:index="1" v:groupContext="foregroundPage">
		<title>Page-1</title>
		<v:pageProperties v:drawingScale="1" v:pageScale="1" v:drawingUnits="0" v:shadowOffsetX="9" v:shadowOffsetY="-9"/>
		<v:layer v:name="Connector" v:index="0"/>
		<g id="shape18-1" v:mID="18" v:groupContext="shape" transform="translate(105,-146.25)">
			<title>Rounded Rectangle.18</title>
			<desc>Combinational Circuit</desc>
			<v:userDefs>
				<v:ud v:nameU="CTypeTopLeftSnip" v:prompt="" v:val="VT0(0):5"/>
				<v:ud v:nameU="CTypeTopRightSnip" v:prompt="" v:val="VT0(0):5"/>
				<v:ud v:nameU="CTypeBotLeftSnip" v:prompt="" v:val="VT0(0):5"/>
				<v:ud v:nameU="CTypeBotRightSnip" v:prompt="" v:val="VT0(0):5"/>
				<v:ud v:nameU="CornerLockHoriz" v:prompt="" v:val="VT0(1):5"/>
				<v:ud v:nameU="CornerLockVert" v:prompt="" v:val="VT0(1):5"/>
				<v:ud v:nameU="CornerLockDiag" v:prompt="" v:val="VT0(0):5"/>
				<v:ud v:nameU="TopLeftOffset" v:prompt="" v:val="VT0(0.15):1"/>
				<v:ud v:nameU="TopRightOffset" v:prompt="" v:val="VT0(0.15):1"/>
				<v:ud v:nameU="BotLeftOffset" v:prompt="" v:val="VT0(0.15):1"/>
				<v:ud v:nameU="BotRightOffset" v:prompt="" v:val="VT0(0.15):1"/>
				<v:ud v:nameU="visVersion" v:prompt="" v:val="VT0(15):26"/>
			</v:userDefs>
			<v:textBlock v:margins="rect(4,4,4,4)"/>
			<v:textRect cx="54" cy="184.5" width="108" height="72"/>
			<g id="shadow18-2" v:groupContext="shadow" v:shadowOffsetX="0.345598" v:shadowOffsetY="-1.97279" v:shadowType="1"
					transform="matrix(1,0,0,1,0.345598,1.97279)" class="st1">
				<path d="M10.8 220.5 L97.2 220.5 A10.7998 10.7998 -180 0 0 108 209.7 L108 159.3 A10.7998 10.7998 -180 0 0 97.2 148.5
							 L10.8 148.5 A10.7998 10.7998 -180 0 0 0 159.3 L0 209.7 A10.7998 10.7998 -180 0 0 10.8 220.5 Z"
						class="st2"/>
			</g>
			<path d="M10.8 220.5 L97.2 220.5 A10.7998 10.7998 -180 0 0 108 209.7 L108 159.3 A10.7998 10.7998 -180 0 0 97.2 148.5
						 L10.8 148.5 A10.7998 10.7998 -180 0 0 0 159.3 L0 209.7 A10.7998 10.7998 -180 0 0 10.8 220.5 Z" class="st3"/>
			<text x="11.31" y="180.3" class="st4" v:langID="1033"><v:paragraph v:horizAlign="1"/><v:tabList/>Combinational<v:newlineChar/><tspan
						x="35.26" dy="1.2em" class="st5">Circuit</tspan></text>		</g>
		<g id="shape19-8" v:mID="19" v:groupContext="shape" transform="translate(105,-33.25)">
			<title>Rounded Rectangle.19</title>
			<desc>Memory</desc>
			<v:userDefs>
				<v:ud v:nameU="CTypeTopLeftSnip" v:prompt="" v:val="VT0(0):5"/>
				<v:ud v:nameU="CTypeTopRightSnip" v:prompt="" v:val="VT0(0):5"/>
				<v:ud v:nameU="CTypeBotLeftSnip" v:prompt="" v:val="VT0(0):5"/>
				<v:ud v:nameU="CTypeBotRightSnip" v:prompt="" v:val="VT0(0):5"/>
				<v:ud v:nameU="CornerLockHoriz" v:prompt="" v:val="VT0(1):5"/>
				<v:ud v:nameU="CornerLockVert" v:prompt="" v:val="VT0(1):5"/>
				<v:ud v:nameU="CornerLockDiag" v:prompt="" v:val="VT0(0):5"/>
				<v:ud v:nameU="TopLeftOffset" v:prompt="" v:val="VT0(0.15):1"/>
				<v:ud v:nameU="TopRightOffset" v:prompt="" v:val="VT0(0.15):1"/>
				<v:ud v:nameU="BotLeftOffset" v:prompt="" v:val="VT0(0.15):1"/>
				<v:ud v:nameU="BotRightOffset" v:prompt="" v:val="VT0(0.15):1"/>
				<v:ud v:nameU="visVersion" v:prompt="" v:val="VT0(15):26"/>
			</v:userDefs>
			<v:textBlock v:margins="rect(4,4,4,4)"/>
			<v:textRect cx="54" cy="184.5" width="108" height="72"/>
			<g id="shadow19-9" v:groupContext="shadow" v:shadowOffsetX="0.345598" v:shadowOffsetY="-1.97279" v:shadowType="1"
					transform="matrix(1,0,0,1,0.345598,1.97279)" class="st1">
				<path d="M10.8 220.5 L97.2 220.5 A10.7998 10.7998 -180 0 0 108 209.7 L108 159.3 A10.7998 10.7998 -180 0 0 97.2 148.5
							 L10.8 148.5 A10.7998 10.7998 -180 0 0 0 159.3 L0 209.7 A10.7998 10.7998 -180 0 0 10.8 220.5 Z"
						class="st2"/>
			</g>
			<path d="M10.8 220.5 L97.2 220.5 A10.7998 10.7998 -180 0 0 108 209.7 L108 159.3 A10.7998 10.7998 -180 0 0 97.2 148.5
						 L10.8 148.5 A10.7998 10.7998 -180 0 0 0 159.3 L0 209.7 A10.7998 10.7998 -180 0 0 10.8 220.5 Z" class="st6"/>
			<text x="29.1" y="188.7" class="st4" v:langID="1033"><v:paragraph v:horizAlign="1"/><v:tabList/>Memory</text>		</g>
		<g id="shape20-14" v:mID="20" v:groupContext="shape" transform="translate(54.25,-200.25)">
			<title>Sheet.20</title>
			<path d="M0 220.5 L36.44 220.5" class="st7"/>
		</g>
		<g id="shape21-20" v:mID="21" v:groupContext="shape" transform="translate(213,-200.25)">
			<title>Sheet.21</title>
			<path d="M0 220.5 L36.44 220.5" class="st7"/>
		</g>
		<g id="shape22-25" v:mID="22" v:groupContext="shape" v:layerMember="0" transform="translate(204,-182.25)">
			<title>Dynamic connector</title>
			<path d="M9 220.5 L48.25 220.5 L48.25 333.5 L18.54 333.5" class="st9"/>
		</g>
		<g id="shape23-31" v:mID="23" v:groupContext="shape" v:layerMember="0" transform="translate(96.0001,-69.25)">
			<title>Dynamic connector.23</title>
			<path d="M9 220.5 L-33.14 220.5 L-33.14 125.5 L-0.54 125.5" class="st9"/>
		</g>
		<g id="shape24-36" v:mID="24" v:groupContext="shape" transform="translate(0.25,-191.25)">
			<title>Sheet.24</title>
			<desc>Input</desc>
			<v:textBlock v:margins="rect(4,4,4,4)"/>
			<v:textRect cx="22.5" cy="210.5" width="45" height="20"/>
			<rect x="0" y="200.5" width="45" height="20" class="st10"/>
			<text x="9.16" y="214.1" class="st11" v:langID="1033"><v:paragraph v:horizAlign="1"/><v:tabList/>Input</text>		</g>
		<g id="shape25-39" v:mID="25" v:groupContext="shape" transform="translate(272.75,-189.25)">
			<title>Sheet.25</title>
			<desc>Output</desc>
			<v:textBlock v:margins="rect(4,4,4,4)"/>
			<v:textRect cx="22.5" cy="210.5" width="45" height="20"/>
			<rect x="0" y="200.5" width="45" height="20" class="st10"/>
			<text x="4.62" y="214.1" class="st11" v:langID="1033"><v:paragraph v:horizAlign="1"/><v:tabList/>Output</text>		</g>
		<g id="shape26-42" v:mID="26" v:groupContext="shape" transform="translate(83,-0.25)">
			<title>Sheet.26</title>
			<desc>Sequential Circuit</desc>
			<v:textBlock v:margins="rect(4,4,4,4)"/>
			<v:textRect cx="76" cy="210.5" width="152" height="20"/>
			<rect x="0" y="200.5" width="152" height="20" class="st10"/>
			<text x="32.05" y="214.1" class="st12" v:langID="1033"><v:paragraph v:horizAlign="1"/><v:tabList/>Sequential Circuit</text>		</g>
	</g>
</svg>
